<?xml version="1.0" encoding="UTF-8" standalone="no"?>
<!-- Created with Inkscape (http://www.inkscape.org/) -->

<svg
   width="512"
   height="512"
   viewBox="0 0 135.46666 135.46666"
   version="1.1"
   id="svg13979"
   inkscape:version="1.2.2 (732a01da63, 2022-12-09)"
   sodipodi:docname="C_Sharp_Logo_2023.svg"
   inkscape:export-filename="C_Sharp_Logo_202311.png"
   inkscape:export-xdpi="48"
   inkscape:export-ydpi="48"
   xmlns:inkscape="http://www.inkscape.org/namespaces/inkscape"
   xmlns:sodipodi="http://sodipodi.sourceforge.net/DTD/sodipodi-0.dtd"
   xmlns="http://www.w3.org/2000/svg"
   xmlns:svg="http://www.w3.org/2000/svg">
  <sodipodi:namedview
     id="namedview13981"
     pagecolor="#ffffff"
     bordercolor="#000000"
     borderopacity="0.25"
     inkscape:showpageshadow="2"
     inkscape:pageopacity="0.0"
     inkscape:pagecheckerboard="0"
     inkscape:deskcolor="#d1d1d1"
     inkscape:document-units="mm"
     showgrid="false"
     inkscape:zoom="0.82772564"
     inkscape:cx="279.68205"
     inkscape:cy="218.67149"
     inkscape:window-width="1600"
     inkscape:window-height="837"
     inkscape:window-x="-8"
     inkscape:window-y="-8"
     inkscape:window-maximized="1"
     inkscape:current-layer="layer1" />
  <defs
     id="defs13976">
    <linearGradient
       id="paint2_linear_1812_34261"
       x1="39.850201"
       y1="55.9944"
       x2="100.03"
       y2="160.752"
       gradientUnits="userSpaceOnUse"
       gradientTransform="matrix(3.3788898,0,0,3.3788898,204.78389,34.460139)">
      <stop
         stop-color="#927BE5"
         id="stop134" />
      <stop
         offset="1"
         stop-color="#512BD4"
         id="stop136" />
    </linearGradient>
  </defs>
  <g
     inkscape:label="Calque 1"
     inkscape:groupmode="layer"
     id="layer1"
     transform="translate(-60.060409,-36.756274)">
    <g
       id="g16308"
       transform="matrix(0.28105395,0,0,0.28105395,-15.230231,4.5884391)">
      <path
         d="m 298.01149,268.48402 v 173.92305 c 0,21.52344 11.47731,41.42005 30.12448,52.17753 l 150.62313,86.96849 c 18.64677,10.76786 41.60223,10.76786 60.24949,0 L 689.6314,494.5846 c 18.64715,-10.76985 30.12593,-30.65409 30.12593,-52.17753 V 268.48402 c 0,-21.52617 -11.47878,-41.42226 -30.12593,-52.17732 L 539.00859,129.35194 c -18.64726,-10.76943 -41.60272,-10.76943 -60.24949,0 L 328.13597,216.3067 c -18.64717,10.77069 -30.12448,30.65115 -30.12448,52.17732 z"
         fill="url(#paint2_linear_1812_34261)"
         id="path8"
         style="fill:url(#paint2_linear_1812_34261);stroke-width:3.37896" />
      <path
         d="m 403.44772,325.33729 v 60.25017 c 0,3.99008 1.5813,7.8321 4.4131,10.64769 2.83189,2.83069 6.65746,4.41244 10.64886,4.41244 3.99158,0 7.83273,-1.58175 10.64932,-4.41244 2.83154,-2.83257 4.41316,-6.65761 4.41316,-10.64769 0,-3.99417 1.58168,-7.83336 4.41321,-10.65115 2.83194,-2.8308 6.6578,-4.41255 10.64919,-4.41255 3.99154,0 7.83238,1.58175 10.64892,4.41255 2.83183,2.83194 4.41317,6.65698 4.41317,10.65115 0,11.98796 -4.75952,23.4789 -13.23953,31.94748 -8.48029,8.47739 -19.97257,13.23879 -31.94744,13.23879 -11.97439,0 -23.48189,-4.7614 -31.94698,-13.23879 -8.48,-8.48158 -13.23987,-19.97315 -13.23987,-31.94748 v -60.25017 c 0,-11.98922 4.75987,-23.48216 13.23987,-31.94738 8.48002,-8.4799 19.97259,-13.23963 31.94698,-13.23963 11.97487,0 23.48237,4.75973 31.94744,13.23963 8.46487,8.48095 13.23953,19.97116 13.23953,31.94738 0,3.99091 -1.58134,7.8321 -4.41317,10.64874 -2.8318,2.83226 -6.65738,4.41265 -10.64892,4.41265 -3.99139,0 -7.83258,-1.58039 -10.64919,-4.41265 -2.83153,-2.83226 -4.41321,-6.65783 -4.41321,-10.64874 0,-3.99218 -1.58162,-7.83431 -4.41316,-10.64969 -2.83175,-2.83121 -6.65774,-4.41317 -10.64932,-4.41317 -3.9914,0 -7.83218,1.58196 -10.64886,4.41317 -2.8318,2.83163 -4.4131,6.65751 -4.4131,10.64969 z m 240.99615,60.25017 c 0,3.99008 -1.58112,7.8321 -4.41233,10.64769 -2.83069,2.83069 -6.65971,4.41244 -10.64979,4.41244 h -15.06359 v 15.06202 c 0,3.99082 -1.58102,7.83294 -4.41286,10.65178 -2.83058,2.81371 -6.65573,4.41234 -10.64643,4.41234 -3.99417,0 -7.83284,-1.58165 -10.65179,-4.41234 -2.81632,-2.83247 -4.4117,-6.66096 -4.4117,-10.65178 v -15.06202 h -30.12624 v 15.06202 c 0,3.99082 -1.58175,7.83294 -4.41234,10.65178 -2.83006,2.81371 -6.65509,4.41234 -10.64821,4.41234 -3.99155,0 -7.83242,-1.58165 -10.64958,-4.41234 -2.83111,-2.83247 -4.41307,-6.66096 -4.41307,-10.65178 v -15.06202 h -15.06318 c -3.9906,0 -7.83157,-1.58175 -10.64811,-4.41244 -2.83184,-2.83257 -4.41307,-6.65761 -4.41307,-10.64769 0,-3.99417 1.58123,-7.83336 4.41307,-10.65115 2.83195,-2.8308 6.65751,-4.41255 10.64811,-4.41255 h 15.06318 v -30.12508 h -15.06318 c -3.9906,0 -7.83157,-1.58039 -10.64811,-4.41265 -2.83184,-2.83226 -4.41307,-6.65783 -4.41307,-10.64874 0,-3.99218 1.58123,-7.83431 4.41307,-10.64969 2.83195,-2.83121 6.65751,-4.41317 10.64811,-4.41317 h 15.06318 v -15.06234 c 0,-3.99217 1.58196,-7.83399 4.41307,-10.64874 2.83215,-2.83142 6.65803,-4.41307 10.64958,-4.41307 3.99312,0 7.8321,1.58165 10.64821,4.41307 2.83059,2.83069 4.41234,6.65657 4.41234,10.64874 v 15.06234 h 30.12624 v -15.06234 c 0,-3.99217 1.58175,-7.83399 4.4117,-10.64874 2.83384,-2.83142 6.65762,-4.41307 10.65179,-4.41307 3.9907,0 7.83157,1.58165 10.64643,4.41307 2.81758,2.83069 4.41286,6.65657 4.41286,10.64874 v 15.06234 h 15.06359 c 3.99008,0 7.8321,1.58196 10.64979,4.41317 2.81486,2.83163 4.41233,6.65751 4.41233,10.64969 0,3.99091 -1.58112,7.8321 -4.41233,10.64874 -2.83069,2.83226 -6.65971,4.41265 -10.64979,4.41265 h -15.06359 v 30.12508 h 15.06359 c 3.99008,0 7.8321,1.58175 10.64979,4.41255 2.81486,2.83194 4.41233,6.65698 4.41233,10.65115 z m -60.24849,-45.18878 h -30.12624 v 30.12508 h 30.12624 z"
         fill="#ffffff"
         id="path12"
         style="stroke-width:3.37896" />
    </g>
  </g>
</svg>
