<svg width="43" height="42" viewBox="0 0 43 42" fill="none" xmlns="http://www.w3.org/2000/svg">
<g id="radix-icons:calendar">
<path id="Vector" fill-rule="evenodd" clip-rule="evenodd" d="M12.9 2.80005C13.2802 2.80005 13.6447 2.94755 13.9136 3.2101C14.1824 3.47265 14.3334 3.82875 14.3334 4.20005V5.60005H28.6667V4.20005C28.6667 3.82875 28.8177 3.47265 29.0865 3.2101C29.3553 2.94755 29.7199 2.80005 30.1 2.80005C30.4802 2.80005 30.8448 2.94755 31.1136 3.2101C31.3824 3.47265 31.5334 3.82875 31.5334 4.20005V5.60005H35.8334C36.9738 5.60005 38.0675 6.04255 38.8739 6.8302C39.6803 7.61785 40.1334 8.68614 40.1334 9.80005V35C40.1334 36.114 39.6803 37.1822 38.8739 37.9699C38.0675 38.7575 36.9738 39.2 35.8334 39.2H7.1667C6.02627 39.2 4.93255 38.7575 4.12614 37.9699C3.31973 37.1822 2.8667 36.114 2.8667 35V9.80005C2.8667 8.68614 3.31973 7.61785 4.12614 6.8302C4.93255 6.04255 6.02627 5.60005 7.1667 5.60005H11.4667V4.20005C11.4667 3.82875 11.6177 3.47265 11.8865 3.2101C12.1553 2.94755 12.5199 2.80005 12.9 2.80005ZM28.6667 8.40005V9.80005C28.6667 10.1714 28.8177 10.5274 29.0865 10.79C29.3553 11.0525 29.7199 11.2 30.1 11.2C30.4802 11.2 30.8448 11.0525 31.1136 10.79C31.3824 10.5274 31.5334 10.1714 31.5334 9.80005V8.40005H35.8334C36.2135 8.40005 36.5781 8.54755 36.8469 8.8101C37.1157 9.07265 37.2667 9.42875 37.2667 9.80005V14H5.73337V9.80005C5.73337 9.42875 5.88438 9.07265 6.15318 8.8101C6.42198 8.54755 6.78656 8.40005 7.1667 8.40005H11.4667V9.80005C11.4667 10.1714 11.6177 10.5274 11.8865 10.79C12.1553 11.0525 12.5199 11.2 12.9 11.2C13.2802 11.2 13.6447 11.0525 13.9136 10.79C14.1824 10.5274 14.3334 10.1714 14.3334 9.80005V8.40005H28.6667ZM5.73337 16.8V35C5.73337 35.3713 5.88438 35.7274 6.15318 35.99C6.42198 36.2525 6.78656 36.4 7.1667 36.4H35.8334C36.2135 36.4 36.5781 36.2525 36.8469 35.99C37.1157 35.7274 37.2667 35.3713 37.2667 35V16.8H5.73337ZM20.0667 21C20.0667 20.6287 20.2177 20.2726 20.4865 20.0101C20.7553 19.7475 21.1199 19.6 21.5 19.6C21.8802 19.6 22.2447 19.7475 22.5136 20.0101C22.7824 20.2726 22.9334 20.6287 22.9334 21C22.9334 21.3714 22.7824 21.7274 22.5136 21.99C22.2447 22.2525 21.8802 22.4 21.5 22.4C21.1199 22.4 20.7553 22.2525 20.4865 21.99C20.2177 21.7274 20.0667 21.3714 20.0667 21ZM27.2334 19.6C26.8532 19.6 26.4886 19.7475 26.2198 20.0101C25.951 20.2726 25.8 20.6287 25.8 21C25.8 21.3714 25.951 21.7274 26.2198 21.99C26.4886 22.2525 26.8532 22.4 27.2334 22.4C27.6135 22.4 27.9781 22.2525 28.2469 21.99C28.5157 21.7274 28.6667 21.3714 28.6667 21C28.6667 20.6287 28.5157 20.2726 28.2469 20.0101C27.9781 19.7475 27.6135 19.6 27.2334 19.6ZM31.5334 21C31.5334 20.6287 31.6844 20.2726 31.9532 20.0101C32.222 19.7475 32.5866 19.6 32.9667 19.6C33.3468 19.6 33.7114 19.7475 33.9802 20.0101C34.249 20.2726 34.4 20.6287 34.4 21C34.4 21.3714 34.249 21.7274 33.9802 21.99C33.7114 22.2525 33.3468 22.4 32.9667 22.4C32.5866 22.4 32.222 22.2525 31.9532 21.99C31.6844 21.7274 31.5334 21.3714 31.5334 21ZM32.9667 25.2C32.5866 25.2 32.222 25.3475 31.9532 25.6101C31.6844 25.8726 31.5334 26.2287 31.5334 26.6C31.5334 26.9713 31.6844 27.3274 31.9532 27.59C32.222 27.8525 32.5866 28 32.9667 28C33.3468 28 33.7114 27.8525 33.9802 27.59C34.249 27.3274 34.4 26.9713 34.4 26.6C34.4 26.2287 34.249 25.8726 33.9802 25.6101C33.7114 25.3475 33.3468 25.2 32.9667 25.2ZM25.8 26.6C25.8 26.2287 25.951 25.8726 26.2198 25.6101C26.4886 25.3475 26.8532 25.2 27.2334 25.2C27.6135 25.2 27.9781 25.3475 28.2469 25.6101C28.5157 25.8726 28.6667 26.2287 28.6667 26.6C28.6667 26.9713 28.5157 27.3274 28.2469 27.59C27.9781 27.8525 27.6135 28 27.2334 28C26.8532 28 26.4886 27.8525 26.2198 27.59C25.951 27.3274 25.8 26.9713 25.8 26.6ZM21.5 25.2C21.1199 25.2 20.7553 25.3475 20.4865 25.6101C20.2177 25.8726 20.0667 26.2287 20.0667 26.6C20.0667 26.9713 20.2177 27.3274 20.4865 27.59C20.7553 27.8525 21.1199 28 21.5 28C21.8802 28 22.2447 27.8525 22.5136 27.59C22.7824 27.3274 22.9334 26.9713 22.9334 26.6C22.9334 26.2287 22.7824 25.8726 22.5136 25.6101C22.2447 25.3475 21.8802 25.2 21.5 25.2ZM14.3334 26.6C14.3334 26.2287 14.4844 25.8726 14.7532 25.6101C15.022 25.3475 15.3866 25.2 15.7667 25.2C16.1468 25.2 16.5114 25.3475 16.7802 25.6101C17.049 25.8726 17.2 26.2287 17.2 26.6C17.2 26.9713 17.049 27.3274 16.7802 27.59C16.5114 27.8525 16.1468 28 15.7667 28C15.3866 28 15.022 27.8525 14.7532 27.59C14.4844 27.3274 14.3334 26.9713 14.3334 26.6ZM10.0334 25.2C9.65322 25.2 9.28865 25.3475 9.01985 25.6101C8.75104 25.8726 8.60003 26.2287 8.60003 26.6C8.60003 26.9713 8.75104 27.3274 9.01985 27.59C9.28865 27.8525 9.65322 28 10.0334 28C10.4135 28 10.7781 27.8525 11.0469 27.59C11.3157 27.3274 11.4667 26.9713 11.4667 26.6C11.4667 26.2287 11.3157 25.8726 11.0469 25.6101C10.7781 25.3475 10.4135 25.2 10.0334 25.2ZM8.60003 32.2C8.60003 31.8287 8.75104 31.4726 9.01985 31.2101C9.28865 30.9475 9.65322 30.8 10.0334 30.8C10.4135 30.8 10.7781 30.9475 11.0469 31.2101C11.3157 31.4726 11.4667 31.8287 11.4667 32.2C11.4667 32.5713 11.3157 32.9274 11.0469 33.19C10.7781 33.4525 10.4135 33.6 10.0334 33.6C9.65322 33.6 9.28865 33.4525 9.01985 33.19C8.75104 32.9274 8.60003 32.5713 8.60003 32.2ZM15.7667 30.8C15.3866 30.8 15.022 30.9475 14.7532 31.2101C14.4844 31.4726 14.3334 31.8287 14.3334 32.2C14.3334 32.5713 14.4844 32.9274 14.7532 33.19C15.022 33.4525 15.3866 33.6 15.7667 33.6C16.1468 33.6 16.5114 33.4525 16.7802 33.19C17.049 32.9274 17.2 32.5713 17.2 32.2C17.2 31.8287 17.049 31.4726 16.7802 31.2101C16.5114 30.9475 16.1468 30.8 15.7667 30.8ZM20.0667 32.2C20.0667 31.8287 20.2177 31.4726 20.4865 31.2101C20.7553 30.9475 21.1199 30.8 21.5 30.8C21.8802 30.8 22.2447 30.9475 22.5136 31.2101C22.7824 31.4726 22.9334 31.8287 22.9334 32.2C22.9334 32.5713 22.7824 32.9274 22.5136 33.19C22.2447 33.4525 21.8802 33.6 21.5 33.6C21.1199 33.6 20.7553 33.4525 20.4865 33.19C20.2177 32.9274 20.0667 32.5713 20.0667 32.2ZM27.2334 30.8C26.8532 30.8 26.4886 30.9475 26.2198 31.2101C25.951 31.4726 25.8 31.8287 25.8 32.2C25.8 32.5713 25.951 32.9274 26.2198 33.19C26.4886 33.4525 26.8532 33.6 27.2334 33.6C27.6135 33.6 27.9781 33.4525 28.2469 33.19C28.5157 32.9274 28.6667 32.5713 28.6667 32.2C28.6667 31.8287 28.5157 31.4726 28.2469 31.2101C27.9781 30.9475 27.6135 30.8 27.2334 30.8Z" fill="#545454"/>
</g>
</svg>
