<svg width="20" height="20" viewBox="0 0 20 20" fill="none" xmlns="http://www.w3.org/2000/svg">
<path opacity="0.1" d="M10 0C4.47715 0 0 4.47715 0 10C0 15.5228 4.47715 20 10 20C15.5228 20 20 15.5228 20 10C19.9936 4.47982 15.5202 0.00642897 10 0Z" fill="white"/>
<path d="M15.7724 6.83333L10.0683 14.5742C9.93221 14.7547 9.72936 14.8729 9.50527 14.9024C9.28118 14.9318 9.05465 14.87 8.87659 14.7308L4.80325 11.4742C4.44381 11.1865 4.3856 10.6619 4.67325 10.3025C4.9609 9.94305 5.48547 9.88485 5.84492 10.1725L9.24159 12.89L14.4308 5.84749C14.6009 5.59215 14.8976 5.45098 15.2031 5.48003C15.5086 5.50907 15.7734 5.70364 15.8923 5.98647C16.0113 6.26931 15.9653 6.59465 15.7724 6.83333Z" fill="white"/>
</svg>
