<svg width="24" height="24" viewBox="0 0 24 24" fill="none" xmlns="http://www.w3.org/2000/svg">
<path d="M2.75 6.57143C2.75 5.82821 2.75045 5.31015 2.77938 4.90513C2.80781 4.50729 2.86092 4.2763 2.93773 4.10024C3.16473 3.57997 3.57997 3.16473 4.10024 2.93773C4.2763 2.86092 4.50729 2.80781 4.90513 2.77938C5.31015 2.75045 5.82821 2.75 6.57143 2.75C7.31465 2.75 7.83271 2.75045 8.23773 2.77938C8.63556 2.80781 8.86655 2.86092 9.04261 2.93773C9.56288 3.16473 9.97813 3.57997 10.2051 4.10024C10.2819 4.2763 10.3351 4.50729 10.3635 4.90513C10.3924 5.31015 10.3929 5.82821 10.3929 6.57143C10.3929 7.31465 10.3924 7.83271 10.3635 8.23773C10.3351 8.63556 10.2819 8.86655 10.2051 9.04261C9.97813 9.56288 9.56288 9.97813 9.04261 10.2051C8.86655 10.2819 8.63556 10.3351 8.23773 10.3635C7.83271 10.3924 7.31465 10.3929 6.57143 10.3929C5.82821 10.3929 5.31015 10.3924 4.90513 10.3635C4.50729 10.3351 4.2763 10.2819 4.10024 10.2051C3.57997 9.97813 3.16473 9.56288 2.93773 9.04261C2.86092 8.86655 2.80781 8.63556 2.77938 8.23773C2.75045 7.83271 2.75 7.31465 2.75 6.57143Z" stroke="#6C6059" stroke-width="1.5"/>
<path d="M2.75 17.4286C2.75 16.6854 2.75045 16.1673 2.77938 15.7623C2.80781 15.3644 2.86092 15.1334 2.93773 14.9574C3.16473 14.4371 3.57997 14.0219 4.10024 13.7949C4.2763 13.7181 4.50729 13.665 4.90513 13.6365C5.31015 13.6076 5.82821 13.6071 6.57143 13.6071C7.31465 13.6071 7.83271 13.6076 8.23773 13.6365C8.63556 13.665 8.86655 13.7181 9.04261 13.7949C9.56288 14.0219 9.97813 14.4371 10.2051 14.9574C10.2819 15.1334 10.3351 15.3644 10.3635 15.7623C10.3924 16.1673 10.3929 16.6854 10.3929 17.4286C10.3929 18.1718 10.3924 18.6899 10.3635 19.0949C10.3351 19.4927 10.2819 19.7237 10.2051 19.8998C9.97813 20.42 9.56288 20.8353 9.04261 21.0623C8.86655 21.1391 8.63556 21.1922 8.23773 21.2206C7.83271 21.2496 7.31465 21.25 6.57143 21.25C5.82821 21.25 5.31015 21.2496 4.90513 21.2206C4.50729 21.1922 4.2763 21.1391 4.10024 21.0623C3.57997 20.8353 3.16473 20.42 2.93773 19.8998C2.86092 19.7237 2.80781 19.4927 2.77938 19.0949C2.75045 18.6899 2.75 18.1718 2.75 17.4286Z" stroke="#6C6059" stroke-width="1.5"/>
<path d="M13.6074 6.57143C13.6074 5.82821 13.6079 5.31015 13.6368 4.90513C13.6652 4.50729 13.7183 4.2763 13.7952 4.10024C14.0221 3.57997 14.4374 3.16473 14.9577 2.93773C15.1337 2.86092 15.3647 2.80781 15.7625 2.77938C16.1676 2.75045 16.6856 2.75 17.4289 2.75C18.1721 2.75 18.6901 2.75045 19.0952 2.77938C19.493 2.80781 19.724 2.86092 19.9 2.93773C20.4203 3.16473 20.8356 3.57997 21.0625 4.10024C21.1394 4.2763 21.1925 4.50729 21.2209 4.90513C21.2498 5.31015 21.2503 5.82821 21.2503 6.57143C21.2503 7.31465 21.2498 7.83271 21.2209 8.23773C21.1925 8.63556 21.1394 8.86655 21.0625 9.04261C20.8356 9.56288 20.4203 9.97813 19.9 10.2051C19.724 10.2819 19.493 10.3351 19.0952 10.3635C18.6901 10.3924 18.1721 10.3929 17.4289 10.3929C16.6856 10.3929 16.1676 10.3924 15.7625 10.3635C15.3647 10.3351 15.1337 10.2819 14.9577 10.2051C14.4374 9.97813 14.0221 9.56288 13.7952 9.04261C13.7183 8.86655 13.6652 8.63556 13.6368 8.23773C13.6079 7.83271 13.6074 7.31465 13.6074 6.57143Z" stroke="#6C6058" stroke-width="1.5"/>
<path d="M13.6074 17.4289C13.6074 16.6856 13.6079 16.1676 13.6368 15.7625C13.6652 15.3647 13.7183 15.1337 13.7952 14.9577C14.0221 14.4374 14.4374 14.0221 14.9577 13.7952C15.1337 13.7183 15.3647 13.6652 15.7625 13.6368C16.1676 13.6079 16.6856 13.6074 17.4289 13.6074C18.1721 13.6074 18.6901 13.6079 19.0952 13.6368C19.493 13.6652 19.724 13.7183 19.9 13.7952C20.4203 14.0221 20.8356 14.4374 21.0625 14.9577C21.1394 15.1337 21.1925 15.3647 21.2209 15.7625C21.2498 16.1676 21.2503 16.6856 21.2503 17.4289C21.2503 18.1721 21.2498 18.6901 21.2209 19.0952C21.1925 19.493 21.1394 19.724 21.0625 19.9C20.8356 20.4203 20.4203 20.8356 19.9 21.0625C19.724 21.1394 19.493 21.1925 19.0952 21.2209C18.6901 21.2498 18.1721 21.2503 17.4289 21.2503C16.6856 21.2503 16.1676 21.2498 15.7625 21.2209C15.3647 21.1925 15.1337 21.1394 14.9577 21.0625C14.4374 20.8356 14.0221 20.4203 13.7952 19.9C13.7183 19.724 13.6652 19.493 13.6368 19.0952C13.6079 18.6901 13.6074 18.1721 13.6074 17.4289Z" stroke="#6C6058" stroke-width="1.5"/>
</svg>
