<svg width="36" height="37" viewBox="0 0 36 37" fill="none" xmlns="http://www.w3.org/2000/svg">
<rect x="0.53418" y="0.961578" width="35.3011" height="35.3011" rx="17.6506" fill="#FFE6D9"/>
<path d="M22.2245 8.00004C18.4725 8.00004 15.449 10.8862 15.449 14.4675C15.449 14.6575 15.4803 14.9146 15.5023 15.1499L8.25005 22.0717C7.85391 22.4474 7.53952 22.8942 7.32498 23.3863C7.11045 23.8784 7 24.4062 7 24.9392C7 25.4723 7.11045 26.0001 7.32498 26.4922C7.53952 26.9843 7.85391 27.4311 8.25005 27.8068C8.64363 28.1849 9.11167 28.485 9.62723 28.6898C10.1428 28.8946 10.6957 29 11.2541 29C11.8125 29 12.3655 28.8946 12.881 28.6898C13.3966 28.485 13.8646 28.1849 14.2582 27.8068L21.5097 20.8841C21.7553 20.9051 22.0263 20.935 22.2245 20.935C25.9764 20.935 28.9999 18.0489 28.9999 14.4675C29.0044 13.4255 28.731 12.3994 28.2055 11.486L27.6762 10.5515L26.8826 11.3098L23.2298 14.7699L21.9069 13.5071L25.5317 10.0211L26.3279 9.26282L25.348 8.75755C24.3907 8.2569 23.316 7.99627 22.2245 8.00004ZM22.2245 9.61692C22.6361 9.61692 22.9427 9.78669 23.3085 9.86996L20.1071 12.9259L19.4973 13.5079L20.1071 14.0633L22.6479 16.4886L23.2306 17.0707L23.8387 16.4886L27.0418 13.4327C27.1291 13.782 27.3061 14.0746 27.3061 14.4675C27.3061 17.192 25.0786 19.3182 22.2245 19.3182C21.8857 19.3182 21.6147 19.3182 21.4029 19.2672L20.9541 19.1411L20.6102 19.4702L13.0666 26.6709C12.0248 27.6653 10.4834 27.6653 9.44169 26.6709L9.41458 26.645C8.39826 25.6507 8.40673 24.1955 9.43999 23.2092L16.9836 16.0092L17.3283 15.681L17.1945 15.2525C17.1437 15.0504 17.142 14.7917 17.142 14.4684C17.142 11.7439 19.3695 9.61772 22.2236 9.61772L22.2245 9.61692Z" fill="#FE9C69"/>
</svg>
