<svg width="36" height="36" viewBox="0 0 36 36" fill="none" xmlns="http://www.w3.org/2000/svg">
<rect x="0.477051" width="35.3011" height="35.3011" rx="17.6506" fill="#FFE6D9"/>
<path d="M19.4771 7.5V10C19.4771 12.357 19.4771 13.536 20.2091 14.268C20.9411 15 22.1201 15 24.4771 15H28.4771" stroke="#FE9C69" stroke-width="1.5"/>
<path d="M23.4771 21C24.0293 21 24.4771 20.3284 24.4771 19.5C24.4771 18.6716 24.0293 18 23.4771 18C22.9248 18 22.4771 18.6716 22.4771 19.5C22.4771 20.3284 22.9248 21 23.4771 21Z" fill="#FE9C69"/>
<path d="M15.4771 22.5C16.3654 23.0923 17.4093 23.4084 18.4771 23.4084C19.5448 23.4084 20.5887 23.0923 21.4771 22.5" stroke="#FE9C69" stroke-width="1.5" stroke-linecap="round" stroke-linejoin="round"/>
<path d="M13.4771 21C14.0293 21 14.4771 20.3284 14.4771 19.5C14.4771 18.6716 14.0293 18 13.4771 18C12.9248 18 12.4771 18.6716 12.4771 19.5C12.4771 20.3284 12.9248 21 13.4771 21Z" fill="#FE9C69"/>
<path d="M9.22705 15C9.22705 14.8011 9.14803 14.6103 9.00738 14.4697C8.86673 14.329 8.67596 14.25 8.47705 14.25C8.27814 14.25 8.08737 14.329 7.94672 14.4697C7.80607 14.6103 7.72705 14.8011 7.72705 15H9.22705ZM27.7271 19C27.7271 19.1989 27.8061 19.3897 27.9467 19.5303C28.0874 19.671 28.2781 19.75 28.4771 19.75C28.676 19.75 28.8667 19.671 29.0074 19.5303C29.148 19.3897 29.2271 19.1989 29.2271 19H27.7271ZM7.83205 10.927C7.81269 11.125 7.87277 11.3225 7.99908 11.4762C8.12538 11.6299 8.30757 11.7271 8.50555 11.7465C8.70354 11.7659 8.9011 11.7058 9.05479 11.5795C9.20847 11.4532 9.30569 11.271 9.32505 11.073L7.83205 10.927ZM29.1221 23.073C29.1316 22.975 29.1218 22.876 29.0932 22.7818C29.0645 22.6875 29.0176 22.5999 28.955 22.5238C28.8925 22.4477 28.8156 22.3846 28.7287 22.3383C28.6418 22.2919 28.5466 22.2631 28.4486 22.2535C28.3505 22.2439 28.2516 22.2537 28.1573 22.2824C28.0631 22.311 27.9754 22.358 27.8993 22.4205C27.7456 22.5468 27.6484 22.729 27.6291 22.927L29.1221 23.073ZM20.4771 26.25H16.4771V27.75H20.4771V26.25ZM9.22705 19V15H7.72705V19H9.22705ZM27.7271 18.563V19H29.2271V18.563H27.7271ZM21.3681 9.61099L25.3271 13.174L26.3301 12.058L22.3721 8.49499L21.3681 9.61099ZM29.2271 18.563C29.2271 16.874 29.2421 15.804 28.8171 14.848L27.4461 15.459C27.7121 16.057 27.7271 16.742 27.7271 18.563H29.2271ZM25.3271 13.174C26.6801 14.392 27.1801 14.862 27.4461 15.459L28.8171 14.848C28.3911 13.891 27.5861 13.188 26.3301 12.058L25.3271 13.174ZM16.5071 7.74999C18.0891 7.74999 18.6861 7.76199 19.2171 7.96599L19.7551 6.56599C18.9031 6.23799 17.9751 6.24999 16.5071 6.24999V7.74999ZM22.3721 8.49599C21.2861 7.51899 20.6071 6.89199 19.7551 6.56599L19.2181 7.96599C19.7501 8.16999 20.1981 8.55799 21.3681 9.61099L22.3721 8.49599ZM16.4771 26.25C14.5701 26.25 13.2161 26.248 12.1871 26.11C11.1821 25.975 10.6021 25.721 10.1791 25.298L9.11905 26.358C9.86705 27.108 10.8161 27.439 11.9881 27.597C13.1381 27.752 14.6131 27.75 16.4771 27.75V26.25ZM7.72705 19C7.72705 20.864 7.72505 22.338 7.88005 23.489C8.03805 24.661 8.37005 25.61 9.11805 26.359L10.1781 25.299C9.75605 24.875 9.50205 24.295 9.36705 23.289C9.22905 22.262 9.22705 20.907 9.22705 19H7.72705ZM20.4771 27.75C22.3411 27.75 23.8151 27.752 24.9661 27.597C26.1381 27.439 27.0871 27.107 27.8361 26.359L26.7761 25.299C26.3521 25.721 25.7721 25.975 24.7661 26.11C23.7391 26.248 22.3841 26.25 20.4771 26.25V27.75ZM16.5071 6.24999C14.6321 6.24999 13.1511 6.24799 11.9961 6.40299C10.8191 6.56099 9.86705 6.89299 9.11805 7.64099L10.1781 8.70099C10.6021 8.27899 11.1831 8.02499 12.1951 7.88999C13.2281 7.75199 14.5901 7.74999 16.5071 7.74999V6.24999ZM9.32505 11.073C9.44605 9.83899 9.70705 9.17299 10.1791 8.70199L9.11905 7.64199C8.28305 8.47599 7.96605 9.56099 7.83205 10.927L9.32505 11.073ZM27.6291 22.927C27.5081 24.161 27.2461 24.827 26.7751 25.298L27.8351 26.358C28.6711 25.524 28.9881 24.439 29.1221 23.073L27.6291 22.927Z" fill="#FE9C69"/>
</svg>
