<svg width="36" height="36" viewBox="0 0 36 36" fill="none" xmlns="http://www.w3.org/2000/svg">
<rect x="0.53418" width="35.3011" height="35.3011" rx="17.6506" fill="#FFE6D9"/>
<path d="M9 18C12.6 10 23.4 10 27 18" stroke="#FE9C69" stroke-width="1.5" stroke-linecap="round" stroke-linejoin="round"/>
<path d="M18 22C17.606 22 17.2159 21.9224 16.8519 21.7716C16.488 21.6209 16.1573 21.3999 15.8787 21.1213C15.6001 20.8427 15.3791 20.512 15.2284 20.1481C15.0776 19.7841 15 19.394 15 19C15 18.606 15.0776 18.2159 15.2284 17.8519C15.3791 17.488 15.6001 17.1573 15.8787 16.8787C16.1573 16.6001 16.488 16.3791 16.8519 16.2284C17.2159 16.0776 17.606 16 18 16C18.7956 16 19.5587 16.3161 20.1213 16.8787C20.6839 17.4413 21 18.2044 21 19C21 19.7956 20.6839 20.5587 20.1213 21.1213C19.5587 21.6839 18.7956 22 18 22Z" fill="#FE9C69" stroke="#FE9C69" stroke-width="1.5" stroke-linecap="round" stroke-linejoin="round"/>
</svg>
