<svg width="36" height="37" viewBox="0 0 36 37" fill="none" xmlns="http://www.w3.org/2000/svg">
<rect x="0.477051" y="0.961578" width="35.3011" height="35.3011" rx="17.6506" fill="#FFE6D9"/>
<path fill-rule="evenodd" clip-rule="evenodd" d="M15.4771 27.9616C13.3553 27.9616 11.3205 27.1187 9.8202 25.6184C8.31991 24.1181 7.47705 22.0833 7.47705 19.9616C7.47705 17.8398 8.31991 15.805 9.8202 14.3047C11.3205 12.8044 13.3553 11.9616 15.4771 11.9616C17.5988 11.9616 19.6336 12.8044 21.1339 14.3047C22.6342 15.805 23.4771 17.8398 23.4771 19.9616C23.4771 22.0833 22.6342 24.1181 21.1339 25.6184C19.6336 27.1187 17.5988 27.9616 15.4771 27.9616ZM15.4771 25.9616C16.265 25.9616 17.0452 25.8064 17.7732 25.5049C18.5011 25.2033 19.1625 24.7614 19.7197 24.2042C20.2768 23.6471 20.7188 22.9856 21.0203 22.2577C21.3219 21.5297 21.4771 20.7495 21.4771 19.9616C21.4771 19.1736 21.3219 18.3934 21.0203 17.6655C20.7188 16.9375 20.2768 16.2761 19.7197 15.7189C19.1625 15.1618 18.5011 14.7198 17.7732 14.4183C17.0452 14.1168 16.265 13.9616 15.4771 13.9616C13.8858 13.9616 12.3596 14.5937 11.2344 15.7189C10.1092 16.8442 9.47705 18.3703 9.47705 19.9616C9.47705 21.5529 10.1092 23.079 11.2344 24.2042C12.3596 25.3294 13.8858 25.9616 15.4771 25.9616ZM18.4771 20.9616C18.4771 21.7572 18.161 22.5203 17.5984 23.0829C17.0358 23.6455 16.2727 23.9616 15.4771 23.9616C14.6814 23.9616 13.9183 23.6455 13.3557 23.0829C12.7931 22.5203 12.4771 21.7572 12.4771 20.9616H18.4771ZM13.4771 18.9616C13.7423 18.9616 13.9966 18.8562 14.1842 18.6687C14.3717 18.4811 14.4771 18.2268 14.4771 17.9616C14.4771 17.6964 14.3717 17.442 14.1842 17.2545C13.9966 17.0669 13.7423 16.9616 13.4771 16.9616C13.2118 16.9616 12.9575 17.0669 12.7699 17.2545C12.5824 17.442 12.4771 17.6964 12.4771 17.9616C12.4771 18.2268 12.5824 18.4811 12.7699 18.6687C12.9575 18.8562 13.2118 18.9616 13.4771 18.9616ZM17.4771 18.9616C17.2118 18.9616 16.9575 18.8562 16.7699 18.6687C16.5824 18.4811 16.4771 18.2268 16.4771 17.9616C16.4771 17.6964 16.5824 17.442 16.7699 17.2545C16.9575 17.0669 17.2118 16.9616 17.4771 16.9616C17.7423 16.9616 17.9966 17.0669 18.1842 17.2545C18.3717 17.442 18.4771 17.6964 18.4771 17.9616C18.4771 18.2268 18.3717 18.4811 18.1842 18.6687C17.9966 18.8562 17.7423 18.9616 17.4771 18.9616ZM24.1021 13.9616C23.2751 13.7816 20.7271 12.3716 20.7271 9.83658C20.7271 9.44305 20.8509 9.05949 21.081 8.74025C21.3111 8.421 21.6358 8.18224 22.0091 8.0578C22.3825 7.93335 22.7855 7.92953 23.1611 8.04687C23.5367 8.1642 23.8659 8.39675 24.1021 8.71158C24.3382 8.39675 24.6674 8.1642 25.043 8.04687C25.4186 7.92953 25.8216 7.93335 26.195 8.0578C26.5683 8.18224 26.893 8.421 27.1231 8.74025C27.3532 9.05949 27.4771 9.44305 27.4771 9.83658C27.4771 12.3716 24.9291 13.7816 24.1021 13.9616Z" fill="#FE9C69"/>
</svg>
