<svg width="36" height="36" viewBox="0 0 36 36" fill="none" xmlns="http://www.w3.org/2000/svg">
<rect x="0.477051" width="35.3011" height="35.3011" rx="17.6506" fill="#FFE6D9"/>
<g clip-path="url(#clip0_493_12013)">
<path d="M22.4771 9C22.9816 8.99984 23.4676 9.19041 23.8376 9.5335C24.2076 9.87659 24.4342 10.3468 24.4721 10.85L24.4771 11V13H25.4771C25.9816 12.9998 26.4676 13.1904 26.8376 13.5335C27.2076 13.8766 27.4342 14.3468 27.4721 14.85L27.4771 15V24C27.4772 24.5046 27.2866 24.9906 26.9436 25.3605C26.6005 25.7305 26.1302 25.9572 25.6271 25.995L25.4771 26H21.4771C21.1529 26.0001 20.8335 25.9213 20.5466 25.7704C20.2596 25.6196 20.0137 25.4011 19.8301 25.134L19.7451 25H9.47705C8.97247 25.0002 8.48648 24.8096 8.1165 24.4665C7.74652 24.1234 7.51989 23.6532 7.48205 23.15L7.47705 23V11C7.47689 10.4954 7.66746 10.0094 8.01055 9.63945C8.35364 9.26947 8.8239 9.04284 9.32705 9.005L9.47705 9H22.4771ZM25.4771 15H21.4771V24H25.4771V15ZM22.4771 11H9.47705V23H19.4771V15C19.4771 14.4696 19.6878 13.9609 20.0628 13.5858C20.4379 13.2107 20.9466 13 21.4771 13H22.4771V11Z" fill="#FE9C69"/>
</g>
<defs>
<clipPath id="clip0_493_12013">
<rect width="24" height="24" fill="white" transform="translate(5.47705 5)"/>
</clipPath>
</defs>
</svg>
