<svg width="40" height="39" viewBox="0 0 40 39" fill="none" xmlns="http://www.w3.org/2000/svg">
<rect opacity="0.15" x="1.36279" y="0.75" width="37.7437" height="37.5" rx="18.75" stroke="#0A142F" stroke-width="1.5"/>
<path d="M21.2715 12.0009C21.8188 11.9989 22.366 12.004 22.9132 12.0163L23.0587 12.0212C23.2266 12.0268 23.3924 12.0338 23.5926 12.0422C24.3906 12.0772 24.9351 12.1948 25.4128 12.3676C25.9078 12.5454 26.3247 12.7862 26.7417 13.1754C27.123 13.5251 27.4181 13.9482 27.6064 14.4151C27.7917 14.861 27.9177 15.3698 27.9552 16.1146C27.9642 16.3008 27.9717 16.4562 27.9777 16.613L27.9822 16.7488C27.9955 17.2592 28.0012 17.7698 27.9994 18.2803L28.0002 18.8025V19.7195C28.002 20.2303 27.9962 20.7411 27.9829 21.2517L27.9784 21.3875C27.9724 21.5443 27.9649 21.699 27.9559 21.8859C27.9184 22.6307 27.7909 23.1389 27.6064 23.5848C27.4187 24.0522 27.1235 24.4756 26.7417 24.8251C26.3667 25.1809 25.9132 25.4563 25.4128 25.6322C24.9351 25.8051 24.3906 25.9227 23.5926 25.9577C23.3924 25.9661 23.2266 25.9731 23.0587 25.9787L22.9132 25.9829C22.366 25.9953 21.8188 26.0007 21.2715 25.999L20.712 25.9997H19.7303C19.183 26.0014 18.6358 25.996 18.0887 25.9836L17.9432 25.9794C17.7651 25.9734 17.5871 25.9664 17.4092 25.9584C16.6112 25.9234 16.0668 25.8044 15.5883 25.6322C15.0878 25.4567 14.6345 25.1813 14.2601 24.8251C13.8784 24.4753 13.5831 24.052 13.3947 23.5848C13.2094 23.1389 13.0834 22.6307 13.0459 21.8859C13.0376 21.7198 13.0301 21.5537 13.0234 21.3875L13.0197 21.2517C13.0058 20.7411 12.9996 20.2303 13.0009 19.7195V18.2803C12.9988 17.7698 13.0043 17.2592 13.0174 16.7488L13.0227 16.613C13.0287 16.4562 13.0362 16.3008 13.0452 16.1146C13.0827 15.3691 13.2087 14.8617 13.3939 14.4151C13.5824 13.9479 13.8783 13.525 14.2609 13.1761C14.635 12.8197 15.088 12.5437 15.5883 12.3676C16.0668 12.1948 16.6105 12.0772 17.4092 12.0422L17.9432 12.0212L18.0887 12.0177C18.6355 12.0048 19.1825 11.9989 19.7296 12.0002L21.2715 12.0009ZM20.5005 15.5007C20.0037 15.4942 19.5104 15.5799 19.0493 15.7528C18.5883 15.9257 18.1686 16.1824 17.8148 16.508C17.461 16.8337 17.18 17.2217 16.9882 17.6495C16.7965 18.0773 16.6977 18.5365 16.6977 19.0003C16.6977 19.464 16.7965 19.9232 16.9882 20.351C17.18 20.7789 17.461 21.1669 17.8148 21.4925C18.1686 21.8181 18.5883 22.0748 19.0493 22.2478C19.5104 22.4207 20.0037 22.5064 20.5005 22.4998C21.495 22.4998 22.4488 22.1311 23.152 21.4747C23.8553 20.8184 24.2503 19.9282 24.2503 18.9999C24.2503 18.0717 23.8553 17.1815 23.152 16.5251C22.4488 15.8688 21.495 15.5007 20.5005 15.5007ZM20.5005 16.9007C20.7994 16.8956 21.0964 16.9461 21.3741 17.0492C21.6518 17.1524 21.9047 17.3062 22.118 17.5017C22.3314 17.6971 22.5008 17.9302 22.6165 18.1875C22.7322 18.4447 22.7918 18.7209 22.7919 18.9999C22.7919 19.2789 22.7324 19.5551 22.6168 19.8124C22.5012 20.0697 22.3318 20.3029 22.1186 20.4984C21.9053 20.6939 21.6525 20.8478 21.3748 20.951C21.0971 21.0543 20.8002 21.1049 20.5013 21.0999C19.9046 21.0999 19.3323 20.8786 18.9104 20.4848C18.4884 20.091 18.2514 19.5569 18.2514 18.9999C18.2514 18.443 18.4884 17.9089 18.9104 17.515C19.3323 17.1212 19.9046 16.9 20.5013 16.9L20.5005 16.9007ZM24.4378 14.4508C24.1959 14.4598 23.9671 14.5559 23.7993 14.7188C23.6316 14.8818 23.5379 15.0991 23.5379 15.325C23.5379 15.551 23.6316 15.7683 23.7993 15.9312C23.9671 16.0942 24.1959 16.1903 24.4378 16.1993C24.6865 16.1993 24.9249 16.1071 25.1007 15.943C25.2765 15.779 25.3753 15.5564 25.3753 15.3243C25.3753 15.0923 25.2765 14.8697 25.1007 14.7057C24.9249 14.5416 24.6865 14.4494 24.4378 14.4494V14.4508Z" fill="black"/>
</svg>
