<svg width="40" height="39" viewBox="0 0 40 39" fill="none" xmlns="http://www.w3.org/2000/svg">
<rect opacity="0.15" x="1.03125" y="0.75" width="37.7437" height="37.5" rx="18.75" stroke="#0A142F" stroke-width="1.5"/>
<path fill-rule="evenodd" clip-rule="evenodd" d="M16.3811 26H13.3623V17H16.3811V26Z" fill="#0A142F"/>
<path fill-rule="evenodd" clip-rule="evenodd" d="M14.8627 15H14.8456C13.9447 15 13.3623 14.333 13.3623 13.4995C13.3623 12.6483 13.9624 12 14.8804 12C15.7983 12 16.3636 12.6483 16.3811 13.4995C16.3811 14.333 15.7983 15 14.8627 15Z" fill="#0A142F"/>
<path fill-rule="evenodd" clip-rule="evenodd" d="M27.4497 25.9998H24.4833V21.2954C24.4833 20.1137 24.0541 19.3074 22.9802 19.3074C22.1606 19.3074 21.6725 19.851 21.4581 20.376C21.3796 20.5641 21.3604 20.8263 21.3604 21.0891V26H18.3936C18.3936 26 18.4327 18.0318 18.3936 17.2067H21.3604V18.4522C21.7541 17.8535 22.4593 17 24.0343 17C25.9864 17 27.4498 18.2571 27.4498 20.958L27.4497 25.9998Z" fill="#0A142F"/>
</svg>
