<svg width="121" height="27" viewBox="0 0 121 27" fill="none" xmlns="http://www.w3.org/2000/svg">
<g clip-path="url(#clip0_1101_2007)">
<rect width="121" height="27" rx="13.5" fill="#85869F" fill-opacity="0.63"/>
<path d="M25.1344 10.95V18H23.1744V14.11L21.8444 18H20.2044L18.8644 14.08V18H16.9044V10.95H19.2744L21.0444 15.53L22.7744 10.95H25.1344ZM30.4634 18.07C29.8034 18.07 29.1968 17.9167 28.6434 17.61C28.0901 17.2967 27.6501 16.8667 27.3234 16.32C27.0034 15.7667 26.8434 15.1433 26.8434 14.45C26.8434 13.7567 27.0034 13.1367 27.3234 12.59C27.6501 12.0367 28.0901 11.6067 28.6434 11.3C29.1968 10.9933 29.8034 10.84 30.4634 10.84C31.1301 10.84 31.7368 10.9933 32.2834 11.3C32.8368 11.6067 33.2734 12.0367 33.5934 12.59C33.9134 13.1367 34.0734 13.7567 34.0734 14.45C34.0734 15.1433 33.9134 15.7667 33.5934 16.32C33.2734 16.8667 32.8368 17.2967 32.2834 17.61C31.7301 17.9167 31.1234 18.07 30.4634 18.07ZM30.4634 16.25C30.9634 16.25 31.3568 16.0867 31.6434 15.76C31.9368 15.4333 32.0834 14.9967 32.0834 14.45C32.0834 13.89 31.9368 13.45 31.6434 13.13C31.3568 12.8033 30.9634 12.64 30.4634 12.64C29.9568 12.64 29.5601 12.8033 29.2734 13.13C28.9868 13.45 28.8434 13.89 28.8434 14.45C28.8434 15.0033 28.9868 15.4433 29.2734 15.77C29.5601 16.09 29.9568 16.25 30.4634 16.25ZM38.4479 18.07C37.6279 18.07 36.9545 17.8767 36.4279 17.49C35.9012 17.0967 35.6179 16.5367 35.5779 15.81H37.6679C37.6879 16.0567 37.7612 16.2367 37.8879 16.35C38.0145 16.4633 38.1779 16.52 38.3779 16.52C38.5579 16.52 38.7045 16.4767 38.8179 16.39C38.9379 16.2967 38.9979 16.17 38.9979 16.01C38.9979 15.8033 38.9012 15.6433 38.7079 15.53C38.5145 15.4167 38.2012 15.29 37.7679 15.15C37.3079 14.9967 36.9345 14.85 36.6479 14.71C36.3679 14.5633 36.1212 14.3533 35.9079 14.08C35.7012 13.8 35.5979 13.4367 35.5979 12.99C35.5979 12.5367 35.7112 12.15 35.9379 11.83C36.1645 11.5033 36.4779 11.2567 36.8779 11.09C37.2779 10.9233 37.7312 10.84 38.2379 10.84C39.0579 10.84 39.7112 11.0333 40.1979 11.42C40.6912 11.8 40.9545 12.3367 40.9879 13.03H38.8579C38.8512 12.8167 38.7845 12.6567 38.6579 12.55C38.5379 12.4433 38.3812 12.39 38.1879 12.39C38.0412 12.39 37.9212 12.4333 37.8279 12.52C37.7345 12.6067 37.6879 12.73 37.6879 12.89C37.6879 13.0233 37.7379 13.14 37.8379 13.24C37.9445 13.3333 38.0745 13.4167 38.2279 13.49C38.3812 13.5567 38.6079 13.6433 38.9079 13.75C39.3545 13.9033 39.7212 14.0567 40.0079 14.21C40.3012 14.3567 40.5512 14.5667 40.7579 14.84C40.9712 15.1067 41.0779 15.4467 41.0779 15.86C41.0779 16.28 40.9712 16.6567 40.7579 16.99C40.5512 17.3233 40.2479 17.5867 39.8479 17.78C39.4545 17.9733 38.9879 18.07 38.4479 18.07ZM48.1324 10.95V12.51H46.2524V18H44.2924V12.51H42.4324V10.95H48.1324ZM58.0083 13.3C58.0083 13.7267 57.9083 14.1167 57.7083 14.47C57.5149 14.8167 57.2183 15.0967 56.8183 15.31C56.4249 15.5167 55.9416 15.62 55.3683 15.62H54.3983V18H52.4383V10.95H55.3683C55.9349 10.95 56.4149 11.05 56.8083 11.25C57.2083 11.45 57.5083 11.7267 57.7083 12.08C57.9083 12.4333 58.0083 12.84 58.0083 13.3ZM55.1783 14.06C55.7316 14.06 56.0083 13.8067 56.0083 13.3C56.0083 12.7867 55.7316 12.53 55.1783 12.53H54.3983V14.06H55.1783ZM63.009 18.07C62.349 18.07 61.7423 17.9167 61.189 17.61C60.6357 17.2967 60.1957 16.8667 59.869 16.32C59.549 15.7667 59.389 15.1433 59.389 14.45C59.389 13.7567 59.549 13.1367 59.869 12.59C60.1957 12.0367 60.6357 11.6067 61.189 11.3C61.7423 10.9933 62.349 10.84 63.009 10.84C63.6757 10.84 64.2823 10.9933 64.829 11.3C65.3823 11.6067 65.819 12.0367 66.139 12.59C66.459 13.1367 66.619 13.7567 66.619 14.45C66.619 15.1433 66.459 15.7667 66.139 16.32C65.819 16.8667 65.3823 17.2967 64.829 17.61C64.2757 17.9167 63.669 18.07 63.009 18.07ZM63.009 16.25C63.509 16.25 63.9023 16.0867 64.189 15.76C64.4823 15.4333 64.629 14.9967 64.629 14.45C64.629 13.89 64.4823 13.45 64.189 13.13C63.9023 12.8033 63.509 12.64 63.009 12.64C62.5023 12.64 62.1057 12.8033 61.819 13.13C61.5323 13.45 61.389 13.89 61.389 14.45C61.389 15.0033 61.5323 15.4433 61.819 15.77C62.1057 16.09 62.5023 16.25 63.009 16.25ZM73.9034 13.3C73.9034 13.7267 73.8034 14.1167 73.6034 14.47C73.4101 14.8167 73.1134 15.0967 72.7134 15.31C72.3201 15.5167 71.8368 15.62 71.2634 15.62H70.2934V18H68.3334V10.95H71.2634C71.8301 10.95 72.3101 11.05 72.7034 11.25C73.1034 11.45 73.4034 11.7267 73.6034 12.08C73.8034 12.4333 73.9034 12.84 73.9034 13.3ZM71.0734 14.06C71.6268 14.06 71.9034 13.8067 71.9034 13.3C71.9034 12.7867 71.6268 12.53 71.0734 12.53H70.2934V14.06H71.0734ZM77.4442 10.95V15.04C77.4442 15.42 77.5309 15.7133 77.7042 15.92C77.8842 16.1267 78.1542 16.23 78.5142 16.23C78.8742 16.23 79.1442 16.1267 79.3242 15.92C79.5109 15.7067 79.6042 15.4133 79.6042 15.04V10.95H81.5642V15.04C81.5642 15.6867 81.4275 16.24 81.1542 16.7C80.8809 17.1533 80.5075 17.4967 80.0342 17.73C79.5675 17.9567 79.0475 18.07 78.4742 18.07C77.9009 18.07 77.3875 17.9567 76.9342 17.73C76.4875 17.4967 76.1342 17.1533 75.8742 16.7C75.6209 16.2467 75.4942 15.6933 75.4942 15.04V10.95H77.4442ZM85.4367 16.5H87.6267V18H83.4767V10.95H85.4367V16.5ZM93.6821 16.85H91.1821L90.8021 18H88.7421L91.3121 10.95H93.5721L96.1321 18H94.0621L93.6821 16.85ZM93.1921 15.35L92.4321 13.07L91.6821 15.35H93.1921ZM101.174 18L99.7743 15.4H99.5643V18H97.6043V10.95H100.694C101.261 10.95 101.741 11.05 102.134 11.25C102.528 11.4433 102.824 11.7133 103.024 12.06C103.224 12.4 103.324 12.7833 103.324 13.21C103.324 13.69 103.191 14.1133 102.924 14.48C102.664 14.84 102.281 15.0967 101.774 15.25L103.364 18H101.174ZM99.5643 14.06H100.534C100.801 14.06 101.001 13.9967 101.134 13.87C101.268 13.7433 101.334 13.56 101.334 13.32C101.334 13.0933 101.264 12.9167 101.124 12.79C100.991 12.6567 100.794 12.59 100.534 12.59H99.5643V14.06Z" fill="#F7B731" fill-opacity="0.85"/>
</g>
<defs>
<clipPath id="clip0_1101_2007">
<rect width="121" height="27" fill="white"/>
</clipPath>
</defs>
</svg>
