<svg width="24" height="24" viewBox="0 0 24 24" fill="none" xmlns="http://www.w3.org/2000/svg">
<path d="M9.89453 6.6416H13.1206M9.89453 10.3285H15.8857M9.89453 14.0154H15.8857" stroke="#242220" stroke-opacity="0.56" stroke-width="1.2" stroke-linecap="round" stroke-linejoin="round"/>
<path fill-rule="evenodd" clip-rule="evenodd" d="M20.8734 14.8099C20.9547 14.0113 20.9547 13.0113 20.9547 11.7493L20.9547 9.14691C20.9549 8.18098 20.955 7.55805 20.7869 6.9685C20.6948 6.64529 20.5658 6.33376 20.4024 6.04007C20.1043 5.50437 19.6638 5.06398 18.9806 4.38111L18.8369 4.23737C18.154 3.55422 17.7136 3.11366 17.1779 2.81561C16.8842 2.65221 16.5727 2.52317 16.2495 2.43104C15.6599 2.263 15.037 2.26312 14.0711 2.26332L12.8896 2.26333V2.26533C12.0275 2.2705 11.3018 2.28903 10.6895 2.35537C9.81826 2.44976 9.09478 2.64754 8.47272 3.09949C8.10103 3.36954 7.77417 3.6964 7.50413 4.06808C7.21632 4.46422 7.03158 4.90148 6.91099 5.39184L6.15529 5.59432C3.81968 6.22015 2.43362 8.62087 3.05945 10.9565L5.0872 18.5242C5.71303 20.8598 8.11374 22.2458 10.4494 21.62L15.7912 20.1886C16.8115 19.9153 17.6505 19.3032 18.2198 18.5059C18.4998 18.4083 18.7617 18.2816 19.0089 18.1165C19.4869 17.797 19.8974 17.3866 20.2168 16.9085C20.616 16.3111 20.7902 15.628 20.8734 14.8099ZM14.0821 3.64594L13.9695 3.64592C12.5854 3.64593 11.6001 3.64738 10.8384 3.72991C10.0848 3.81155 9.63247 3.96585 9.28538 4.21802C9.03107 4.40279 8.80743 4.62643 8.62266 4.88074C8.37048 5.22784 8.21619 5.68018 8.13455 6.43375C8.0515 7.20026 8.05055 8.19314 8.05055 9.59103V11.711C8.05055 13.0199 8.05139 13.9495 8.12467 14.6699C8.19678 15.3788 8.33327 15.808 8.5554 16.1404C8.77396 16.4675 9.05479 16.7483 9.38188 16.9669C9.71432 17.189 10.1435 17.3255 10.8524 17.3976C11.5728 17.4709 12.5024 17.4717 13.8113 17.4717C15.1202 17.4717 16.0499 17.4709 16.7703 17.3976C17.4791 17.3255 17.9083 17.189 18.2407 16.9669C18.5678 16.7483 18.8487 16.4675 19.0672 16.1404C19.2894 15.808 19.4258 15.3788 19.498 14.6699C19.5712 13.9495 19.5721 13.0199 19.5721 11.711V9.40668C19.5721 8.95263 19.5706 8.68164 19.5445 8.48741C19.5325 8.39841 19.5184 8.35384 19.5102 8.33376C19.5083 8.32911 19.5068 8.32605 19.5058 8.32427L19.5046 8.32203L19.5023 8.32076C19.5005 8.31983 19.4975 8.31834 19.4928 8.31643C19.4728 8.30817 19.4282 8.29407 19.3392 8.28211C19.145 8.25599 18.874 8.25452 18.4199 8.25452L17.457 8.25453C17.058 8.25457 16.6923 8.25462 16.3947 8.21461C16.0671 8.17056 15.7207 8.06692 15.4359 7.78208C15.1511 7.49725 15.0474 7.15094 15.0034 6.82328C14.9634 6.52574 14.9634 6.15997 14.9635 5.76104L14.9635 4.61372C14.9635 4.2527 14.9625 4.03747 14.9455 3.88025C14.9355 3.78777 14.9227 3.74988 14.918 3.7389C14.9046 3.72083 14.8886 3.70482 14.8705 3.6914C14.8595 3.68666 14.8216 3.67392 14.7291 3.6639C14.5849 3.64827 14.3918 3.64618 14.0821 3.64594ZM15.4599 18.8459C14.9767 18.8543 14.442 18.8543 13.8496 18.8543H13.773C12.511 18.8543 11.511 18.8543 10.7124 18.7731C9.89427 18.6899 9.21124 18.5157 8.61376 18.1165C8.13571 17.797 7.72525 17.3866 7.40583 16.9085C7.0066 16.3111 6.83242 15.628 6.74919 14.8099C6.66795 14.0113 6.66796 13.0113 6.66797 11.7493V9.55001C6.66796 8.49816 6.66796 7.6168 6.71172 6.87658L6.51313 6.9298C4.91508 7.35799 3.96673 9.00059 4.39492 10.5986L6.42267 18.1663C6.85087 19.7644 8.49346 20.7127 10.0915 20.2845L15.4334 18.8532C15.4423 18.8508 15.4511 18.8484 15.4599 18.8459ZM19.1942 6.71226C19.2263 6.77003 19.2565 6.82882 19.2848 6.88851C19.0385 6.87187 18.7591 6.8719 18.4612 6.87194L17.4982 6.87194C17.0442 6.87194 16.7732 6.87047 16.5789 6.84436C16.4899 6.83239 16.4454 6.8183 16.4253 6.81004C16.4206 6.80813 16.4176 6.80664 16.4158 6.80571L16.4136 6.80444L16.4123 6.80219C16.4114 6.80041 16.4099 6.79736 16.408 6.79271C16.3997 6.77263 16.3856 6.72806 16.3736 6.63906C16.3475 6.44483 16.3461 6.17384 16.3461 5.71979L16.3461 4.58119C16.3461 4.34908 16.3461 4.1309 16.3359 3.93628C16.3934 3.96362 16.45 3.9928 16.5057 4.02379C16.8519 4.21639 17.1516 4.50737 17.9311 5.28688C18.7106 6.0664 19.0016 6.36609 19.1942 6.71226Z" fill="#242220" fill-opacity="0.56"/>
</svg>
