<svg width="197" height="24" viewBox="0 0 197 24" fill="none" xmlns="http://www.w3.org/2000/svg">
<g filter="url(#filter0_d_54_155)">
<path d="M167.704 13.037C168.761 12.8808 170.943 12.1708 173.024 11.7347C177.068 10.8873 181.28 11.3007 185.26 9.84615C189.916 8.14488 166.129 7.57647 160.871 7.55844C154.643 7.54041 147.345 7.57448 137.892 7.49733C119.853 7.35707 95.291 7.27392 70.9141 7.98123C63.7085 8.19863 56.4985 8.38697 49.3206 8.72962C46.6246 8.86187 43.924 8.99613 41.2278 9.12836C36.4983 9.36981 31.772 9.61226 27.0413 9.82768C23.0353 10.01 18.1013 10.9337 13.7853 10.8586C8.86391 10.7724 5.43553 9.21152 4.36674 6.212C3.9703 5.12198 3.71325 3.52593 4.58354 2.59723C5.45848 1.6655 5.94475 1.4 6.47589 1.14955C7.75812 0.560449 9.34233 0.102611 10.0965 0.0855814C20.5013 -0.105773 32.1141 0.0605336 41.4288 0.225842C48.7395 0.360092 56.066 0.486317 65.6967 0.492344C77.2365 0.608559 111.794 1.0093 123.331 1.01733C130.977 1.02334 138.607 1.4341 146.214 1.96509C152.543 2.40592 158.942 2.87178 165.448 3.39473C171.739 3.89266 175.478 3.92571 181.839 4.49878C182.831 4.58194 183.998 4.6651 185.26 4.76529C186.312 4.83042 187.674 4.94763 188.701 4.99071C189.733 5.02277 191.906 5.31676 192.72 8C193.717 11.2898 191.906 13.1142 189.623 14.3264C188.501 14.9225 187.31 14.9325 186.641 15.0076C184.073 15.3733 181.668 15.4875 179.858 15.3062C178.639 15.183 174.986 15.5567 171.79 15.8312C169.43 16.0466 168.09 16.0796 164.43 15.7901C162.503 15.4665 162.454 14.5087 164.699 13.7042C165.701 13.4117 166.848 13.1623 167.704 13.037Z" fill="#F6B93B"/>
</g>
<defs>
<filter id="filter0_d_54_155" x="0" y="0" width="197" height="24" filterUnits="userSpaceOnUse" color-interpolation-filters="sRGB">
<feFlood flood-opacity="0" result="BackgroundImageFix"/>
<feColorMatrix in="SourceAlpha" type="matrix" values="0 0 0 0 0 0 0 0 0 0 0 0 0 0 0 0 0 0 127 0" result="hardAlpha"/>
<feOffset dy="4"/>
<feGaussianBlur stdDeviation="2"/>
<feComposite in2="hardAlpha" operator="out"/>
<feColorMatrix type="matrix" values="0 0 0 0 0 0 0 0 0 0 0 0 0 0 0 0 0 0 0.25 0"/>
<feBlend mode="normal" in2="BackgroundImageFix" result="effect1_dropShadow_54_155"/>
<feBlend mode="normal" in="SourceGraphic" in2="effect1_dropShadow_54_155" result="shape"/>
</filter>
</defs>
</svg>
